<svg id="visual" viewBox="0 0 900 600" width="900" height="600" xmlns="http://www.w3.org/2000/svg" xmlns:xlink="http://www.w3.org/1999/xlink" version="1.1"><rect x="0" y="0" width="900" height="600" fill="#001220"></rect><path d="M0 378L25 372.2C50 366.3 100 354.7 150 357.3C200 360 250 377 300 372.7C350 368.3 400 342.7 450 332.7C500 322.7 550 328.3 600 332.2C650 336 700 338 750 349.8C800 361.7 850 383.3 875 394.2L900 405L900 601L875 601C850 601 800 601 750 601C700 601 650 601 600 601C550 601 500 601 450 601C400 601 350 601 300 601C250 601 200 601 150 601C100 601 50 601 25 601L0 601Z" fill="#dc143c"></path><path d="M0 444L25 448C50 452 100 460 150 454.5C200 449 250 430 300 422.7C350 415.3 400 419.7 450 426.2C500 432.7 550 441.3 600 441C650 440.7 700 431.3 750 423C800 414.7 850 407.3 875 403.7L900 400L900 601L875 601C850 601 800 601 750 601C700 601 650 601 600 601C550 601 500 601 450 601C400 601 350 601 300 601C250 601 200 601 150 601C100 601 50 601 25 601L0 601Z" fill="#941647"></path><path d="M0 489L25 490.5C50 492 100 495 150 489C200 483 250 468 300 470.2C350 472.3 400 491.7 450 499.3C500 507 550 503 600 495.7C650 488.3 700 477.7 750 471.3C800 465 850 463 875 462L900 461L900 601L875 601C850 601 800 601 750 601C700 601 650 601 600 601C550 601 500 601 450 601C400 601 350 601 300 601C250 601 200 601 150 601C100 601 50 601 25 601L0 601Z" fill="#4a1b36"></path><path d="M0 542L25 534.3C50 526.7 100 511.3 150 513.7C200 516 250 536 300 544C350 552 400 548 450 545.3C500 542.7 550 541.3 600 537.3C650 533.3 700 526.7 750 519.3C800 512 850 504 875 500L900 496L900 601L875 601C850 601 800 601 750 601C700 601 650 601 600 601C550 601 500 601 450 601C400 601 350 601 300 601C250 601 200 601 150 601C100 601 50 601 25 601L0 601Z" fill="#0d0c0d"></path></svg>